<svg height='24px' width='24px'  fill="#f46e3e" xmlns="http://www.w3.org/2000/svg" data-name="Layer 1" viewBox="0 0 100 100" x="0px" y="0px"><title>Fist</title><path d="M36.51,60.91H77.6a3,3,0,0,0,2.76-1.81L94.75,26A3,3,0,0,0,92,21.79H23.63L19.18,11.57a3,3,0,0,0-2.76-1.81h-9A2.45,2.45,0,0,0,5,12.21v.11a2.45,2.45,0,0,0,2.45,2.45h7.66L33.27,56.54A8.53,8.53,0,0,0,28,65.26a8.72,8.72,0,0,0,8.76,7.68h44a2.46,2.46,0,0,0,2.46-2.45v-.11a2.45,2.45,0,0,0-2.46-2.45H36.61a3.59,3.59,0,0,1-3.54-2.78A3.52,3.52,0,0,1,36.51,60.91Z"></path><circle cx="40.1" cy="81.59" r="8.65" transform="translate(-45.95 52.25) rotate(-45)"></circle><circle cx="70.19" cy="81.59" r="8.65" transform="translate(-37.14 73.53) rotate(-45)"></circle></svg>