<?xml version="1.0" encoding="UTF-8"?>
<svg width="355px" height="88px" viewBox="0 0 355 88" version="1.1" xmlns="http://www.w3.org/2000/svg" xmlns:xlink="http://www.w3.org/1999/xlink">
    <!-- Generator: Sketch 55.2 (78181) - https://sketchapp.com -->
    <title>Group</title>
    <desc>Created with Sketch.</desc>
    <g id="Page-1" stroke="none" stroke-width="1" fill="none" fill-rule="evenodd">
        <g id="Group" transform="translate(0.957376, 0.734000)" fill-rule="nonzero">
            <path d="M7.46262388,62.603 C10.4316239,63.64 13.7596239,63.713 16.8196239,63.084 C23.0306239,61.806 27.9256239,59.761 31.9296239,57.368 C32.9876239,56.735 33.6976239,55.661 33.8676239,54.44 C34.4786239,50.042 35.5776239,39.168 32.3246239,34.667 C30.1586239,31.669 27.0986239,29.985 23.5106239,29.273 C20.5826239,28.693 17.9006239,28.129 15.3706239,26.727 C14.8416239,26.434 15.0296239,25.631 15.6336239,25.618 C18.7576239,25.55 21.8876239,25.505 24.9706239,25.977 C28.6896239,26.547 32.3976239,27.941 35.0566239,30.602 C35.3796239,29.504 35.4406239,28.33 35.2416239,27.203 C35.1776239,26.842 35.5916239,26.592 35.8836239,26.814 C37.5866239,28.11 38.8146239,30.004 39.5546239,32.026 C40.4166239,34.383 40.6686239,36.919 40.7466239,39.427 C41.3826239,38.894 41.9276239,38.252 42.3546239,37.54 C42.5746239,37.172 43.1256239,37.244 43.2156239,37.663 C43.3616239,38.344 43.5476239,39.035 43.5826239,39.48 C43.6856239,40.814 43.6996239,42.155 43.6236239,43.491 C43.4856239,45.912 43.0576239,48.331 42.4076239,50.666 C42.4076239,50.666 52.2826239,38.166 47.3246239,25.083 C42.3666239,12 30.8246239,5 30.8246239,5 C30.8246239,5 26.9496239,2.48689958e-14 25.2416239,2.48689958e-14 C23.5336239,2.48689958e-14 24.3246239,9.832 24.3246239,9.834 C24.3866239,10.61 22.5726239,12.183 22.0966239,12.767 C21.0246239,14.083 19.8436239,15.311 18.5726239,16.436 C15.6156239,19.052 12.2686239,20.689 8.79462388,22.473 C8.41662388,22.667 8.00062388,22.907 7.89662388,23.318 C7.81362388,23.644 7.95562388,23.983 8.11362388,24.28 C10.8096239,29.333 18.5196239,30.902 23.6586239,31.084 C23.9956239,31.096 23.5596239,33.006 23.5236239,33.114 C22.7546239,35.463 20.8006239,37.131 19.0006239,38.677 C14.6656239,42.401 9.54362388,45.246 5.82262388,49.657 C4.60862388,51.096 3.55262388,52.716 3.07262388,54.536 C2.59262388,56.356 2.74562388,58.403 3.79262388,59.967 C4.64462388,61.241 6.01462388,62.098 7.46262388,62.603 Z M22.6576239,18.918 C23.7626239,18.918 24.6576239,19.403 24.6576239,20.001 C24.6576239,20.599 23.7626239,21.084 22.6576239,21.084 C21.5526239,21.084 20.6576239,20.599 20.6576239,20.001 C20.6576239,19.403 21.5536239,18.918 22.6576239,18.918 Z" id="Shape" fill="#5B46A7"></path>
            <path d="M72.0756239,69.668 C72.0756239,60.581 65.1846239,53.784 56.2116239,53.424 C54.7846239,53.367 53.3536239,53.454 51.9416239,53.67 C46.0636239,54.569 40.8086239,57.598 35.7106239,60.484 C30.4436239,63.465 25.2456239,66.181 19.2816239,67.515 C13.8636239,68.727 7.95362388,69.125 3.49362388,65.24 C2.81962388,64.653 2.20562388,63.997 1.66562388,63.284 C1.40362388,62.938 0.882623884,61.759 0.294623884,61.883 C-0.111376116,61.971 0.00862388424,63.115 0.0446238842,63.65 C0.573623884,71.408 3.52962388,79.592 10.5746239,83.676 C14.3706239,85.876 18.8606239,86.794 23.2356239,86.467 C31.8346239,85.825 39.8336239,81.109 47.9616239,78.555 C52.3226239,77.184 56.8596239,75.981 61.4076239,77.251 C66.0996239,78.562 66.2736239,82.115 65.7566239,84.57 C65.6146239,85.244 66.4536239,85.686 66.9106239,85.17 C72.5516239,78.8 72.0756239,69.668 72.0756239,69.668 Z M57.4316239,64.379 C54.9526239,64.263 52.4626239,64.547 50.0466239,65.143 C47.6176239,65.716 45.2516239,66.612 42.8846239,67.576 C40.5226239,68.558 38.1686239,69.646 35.7106239,70.562 C37.7576239,68.928 39.9086239,67.455 42.2076239,66.176 C44.5016239,64.893 46.9706239,63.857 49.5766239,63.199 C52.1906239,62.59 54.9306239,62.369 57.6056239,62.827 C60.2706239,63.265 62.8276239,64.39 64.7856239,66.146 C62.3816239,65.103 59.9116239,64.51 57.4316239,64.379 Z" id="Shape" fill="#FBC303"></path>
            <path d="M105.979162,61.266 L105.979162,26.366 L127.579162,26.366 L127.579162,31.766 L113.029162,31.766 L113.029162,40.916 L124.129162,40.916 L124.129162,46.316 L113.029162,46.316 L113.029162,61.266 L105.979162,61.266 Z M144.059932,61.666 C140.026578,61.666 136.743278,60.3576798 134.209932,57.741 C131.676586,55.1243203 130.409932,51.6660215 130.409932,47.366 C130.409932,43.0659785 131.684919,39.6243463 134.234932,37.041 C136.784944,34.4576538 140.084911,33.166 144.134932,33.166 C148.184952,33.166 151.509919,34.4243207 154.109932,36.941 C156.709945,39.4576793 158.009932,42.815979 158.009932,47.016 C158.009932,47.9826715 157.943266,48.8826625 157.809932,49.716 L137.609932,49.716 C137.776599,51.516009 138.443259,52.9659945 139.609932,54.066 C140.776604,55.166 142.259923,55.716 144.059932,55.716 C146.493277,55.716 148.293259,54.71601 149.459932,52.716 L157.059932,52.716 C156.259928,55.3493465 154.709943,57.499325 152.409932,59.166 C150.10992,60.832675 147.326615,61.666 144.059932,61.666 Z M150.709932,45.166 C150.609932,43.3326575 149.934938,41.8660055 148.684932,40.766 C147.434925,39.6659945 145.926607,39.116 144.159932,39.116 C142.393256,39.116 140.918271,39.6659945 139.734932,40.766 C138.551592,41.8660055 137.843266,43.3326575 137.609932,45.166 L150.709932,45.166 Z M173.540701,55.366 L176.890701,55.366 L176.890701,61.266 L172.440701,61.266 C169.607353,61.266 167.424042,60.6160065 165.890701,59.316 C164.35736,58.0159935 163.590701,55.866015 163.590701,52.866 L163.590701,39.316 L160.640701,39.316 L160.640701,33.566 L163.590701,33.566 L163.590701,26.716 L170.640701,26.716 L170.640701,33.566 L176.840701,33.566 L176.840701,39.316 L170.640701,39.316 L170.640701,52.866 C170.640701,53.7660045 170.857365,54.4076648 171.290701,54.791 C171.724036,55.1743353 172.474029,55.366 173.540701,55.366 Z M183.47147,57.766 C180.938124,55.165987 179.67147,51.7160215 179.67147,47.416 C179.67147,43.1159785 180.938124,39.666013 183.47147,37.066 C186.004816,34.465987 189.288117,33.166 193.32147,33.166 C196.688154,33.166 199.504792,33.9826585 201.77147,35.616 C204.038148,37.2493415 205.5548,39.565985 206.32147,42.566 L198.72147,42.566 C197.821466,40.2659885 196.021484,39.116 193.32147,39.116 C191.288127,39.116 189.696476,39.8576593 188.54647,41.341 C187.396464,42.8243408 186.82147,44.8493205 186.82147,47.416 C186.82147,49.9826795 187.396464,52.0076593 188.54647,53.491 C189.696476,54.9743408 191.288127,55.716 193.32147,55.716 C195.98815,55.716 197.788132,54.549345 198.72147,52.216 L206.32147,52.216 C205.521466,55.1160145 203.979815,57.4159915 201.69647,59.116 C199.413125,60.8160085 196.621487,61.666 193.32147,61.666 C189.288117,61.666 186.004816,60.366013 183.47147,57.766 Z M217.902239,24.266 L217.902239,37.716 C219.668915,34.6826515 222.535553,33.166 226.502239,33.166 C229.668922,33.166 232.252229,34.2076563 234.252239,36.291 C236.252249,38.3743438 237.252239,41.2659815 237.252239,44.966 L237.252239,61.266 L230.252239,61.266 L230.252239,45.966 C230.252239,43.7993225 229.702245,42.1410058 228.602239,40.991 C227.502234,39.8409942 226.002249,39.266 224.102239,39.266 C222.20223,39.266 220.693912,39.8409942 219.577239,40.991 C218.460567,42.1410058 217.902239,43.7993225 217.902239,45.966 L217.902239,61.266 L210.852239,61.266 L210.852239,24.266 L217.902239,24.266 Z M251.183008,60.766 L240.333008,33.566 L248.233008,33.566 L255.283008,53.266 L262.733008,33.566 L270.083008,33.566 L252.783008,74.366 L245.433008,74.366 L251.183008,60.766 Z M273.413778,61.266 L273.413778,26.366 L295.013778,26.366 L295.013778,31.766 L280.463778,31.766 L280.463778,40.916 L291.563778,40.916 L291.563778,46.316 L280.463778,46.316 L280.463778,61.266 L273.413778,61.266 Z M312.094547,55.716 C314.061223,55.716 315.752873,54.9910072 317.169547,53.541 C318.586221,52.0909927 319.294547,50.0410133 319.294547,47.391 C319.294547,44.7409867 318.594554,42.6993405 317.194547,41.266 C315.79454,39.8326595 314.10289,39.116 312.119547,39.116 C310.136204,39.116 308.46122,39.8326595 307.094547,41.266 C305.727873,42.6993405 305.044547,44.74932 305.044547,47.416 C305.044547,50.08268 305.727873,52.1326595 307.094547,53.566 C308.46122,54.9993405 310.12787,55.716 312.094547,55.716 Z M301.944547,57.716 C299.244533,55.0826535 297.894547,51.632688 297.894547,47.366 C297.894547,43.099312 299.2612,39.666013 301.994547,37.066 C304.727894,34.465987 308.119527,33.166 312.169547,33.166 C316.219567,33.166 319.6112,34.465987 322.344547,37.066 C325.077894,39.666013 326.444547,43.099312 326.444547,47.366 C326.444547,51.632688 325.069561,55.0826535 322.319547,57.716 C319.569533,60.3493465 316.161234,61.666 312.094547,61.666 C308.02786,61.666 304.64456,60.3493465 301.944547,57.716 Z M353.325316,33.566 L344.325316,47.116 L353.275316,61.266 L345.375316,61.266 L340.075316,52.916 L334.975316,61.266 L327.875316,61.266 L336.825316,47.766 L327.875316,33.566 L335.775316,33.566 L341.075316,41.966 L346.175316,33.566 L353.325316,33.566 Z" id="FetchyFox" fill="#0A0606"></path>
        </g>
    </g>
</svg>